<?xml version="1.0" encoding="utf-8"?>
<!-- Generator: Adobe Illustrator 27.2.0, SVG Export Plug-In . SVG Version: 6.00 Build 0)  -->
<svg version="1.1" id="Capa_1" xmlns="http://www.w3.org/2000/svg" xmlns:xlink="http://www.w3.org/1999/xlink" x="0px" y="0px"
	 viewBox="0 0 1000 1000" style="enable-background:new 0 0 1000 1000;" xml:space="preserve">
<g>
	<g>
		<path d="M483.91,584.62c-12.56-7.91-20.16-17.28-17.06-24.64c3.1-7.36,14.73-8.09,22.32-1.1c7.6,6.99,13.18,21.7,13.18,21.7
			l6.36-25.19c-7.13-8.83-19.53-13.98-33.02-11.77c-13.49,2.21-26.98,14.16-24.03,35.67c2.95,21.51,25.73,31.26,38.6,40.82
			c12.87,9.56,7.13,25.38-9.45,23.9c-16.59-1.47-24.19-24.27-24.19-24.27l-6.67,24.64c0,0,6.2,10.3,25.73,12.14
			c19.53,1.84,36.91-10.48,39.08-30.89C516.93,605.21,496.47,592.53,483.91,584.62z"/>
		<path d="M584.11,626.77l-21.46-80.51v-2.08H542.7v2.22l1.87,3.01c3.37,6.89,0.93,16.43,0.93,16.43s-10.76,39.04-16.43,60.71
			c-5.67,21.67-14.21,28.06-14.21,28.06v1.29l20.31,0.11v-1.47c0,0,0.19,0.69-1.44-6.39c-1.63-7.08,2.39-16.74,2.39-16.74h29.95
			c0,0,0.86,1.34,2.1,9.09c1.24,7.75-1.91,14.04-1.91,14.04v0.89h31.72v-0.89l-3.49-4.09C587.98,642.22,584.11,626.77,584.11,626.77
			z M537.61,623.32l13.2-47.36l12.77,47.36H537.61z"/>
		<path d="M667.53,611.76c-2.23-6.98-5.52-11.95-9.18-15.49c2.52-3.03,4.75-6.96,6.37-12.03c0.01-0.03,0.02-0.05,0.02-0.08
			c1.74-5.47,1.81-11.36,0.22-16.88c-0.12-0.43-0.25-0.85-0.38-1.26c-7.93-24.81-30.42-22.16-30.42-22.16h-4.27h-1.29h-23.76v1.15
			c0,0,5.93,8.04,5.93,15.12c0,7.08,0,78.93,0,78.93s-2.12,15.48-6.53,15.48v1h32v-0.01c-0.01,0-0.01,0-0.02,0v-1
			c0,0-2.88-3.26-4.76-7.93c-1.36-1.23-1.57-7.57-1.57-7.57c0-1.81,0-7.33,0-14.85c0-2.54,0-5.31,0-8.24v-9.54v-5.63
			c15.62,0,16.45,5.78,16.45,5.78l0.08-0.03c1.22,3.06,1.97,7.03,1.94,12.2v8.12v1.76c-1.39,16.29-11.83,18.09-16.88,18
			c1.88,4.67,4.76,7.93,4.76,7.93v1c5.39,0.12,24.14-1.18,31.45-24.07c0.01-0.03,0.02-0.06,0.03-0.08
			c1.89-5.96,1.95-12.38,0.2-18.38C667.78,612.58,667.66,612.16,667.53,611.76z M646.85,579.97v1.63c-0.25,2.89-0.8,5.29-1.57,7.27
			c-0.11,0.3-0.24,0.58-0.36,0.86c-0.92,1.53-4.11,4.55-15.04,4.55v-6.03v-0.48v-7.8v-27.69c0-0.06,0-0.12,0-0.18
			c4.19-0.38,17.11,0.08,16.97,20.37V579.97z"/>
		<path d="M847.44,637.1c-4.51-11.1-11.58-15.03-16.93-16.34c7.88-4.64,14.92-14.46,14.92-34.75c0-46.07-33.15-42.15-33.15-42.15
			h-5.56h-25.06v1.15c0,0,5.93,8.04,5.93,15.12c0,7.08,0,78.93,0,78.93s-2.12,15.48-6.53,15.48v1h32v-1c0,0-6.35-7.18-6.35-15.5
			c0-1.49,0-5.53,0-11.12c2.6-0.08,6.08,0.3,10.73,1.58c15.07,4.16,15.07,26.05,15.07,26.05h24.9v-1.22
			C857.42,654.32,855.48,656.9,847.44,637.1z M824.98,579.97v8.29v7.5c0.17,24.2-18.26,20.19-18.26,20.19v-27.69v-8.29v-27.69
			c0,0,18.43-4.02,18.26,20.19V579.97z"/>
		<path d="M293.15,624.64l-21.46-80.51v-2.08h-19.95v2.22l1.87,3.01c3.37,6.89,0.93,16.43,0.93,16.43s-10.76,39.04-16.43,60.71
			c-5.67,21.67-14.21,28.06-14.21,28.06v1.29l20.31,0.11v-1.47c0,0,0.19,0.69-1.44-6.39c-1.63-7.08,2.39-16.74,2.39-16.74h29.95
			c0,0,0.86,1.34,2.1,9.09c1.24,7.75-1.91,14.04-1.91,14.04v0.89h31.72v-0.89l-3.49-4.09C297.03,640.1,293.15,624.64,293.15,624.64z
			 M246.66,621.2l13.2-47.36l12.77,47.36H246.66z"/>
		<path d="M411.73,549.3c16.15,0,21.02,20.09,21.02,20.09h1.36v-27.84h-31.14h-24.54h-0.72v1.22c0,0,4.61,4.15,5.95,9.89
			c0.23,1.42,0.37,2.86,0.37,4.3v80.91c0,1.44-0.14,2.88-0.37,4.3c-1.34,5.73-5.95,9.89-5.95,9.89v1.22h0.72h24.54h31.14v-27.84
			h-1.36c0,0-4.88,20.09-21.02,20.09h-8.75v-38.26c16.28,0.99,20.47-6.74,20.47-6.74l-3.46-11.7l-2.02-1.01
			c-4.77,8.52-10.67,11.43-14.99,12.33V549.3H411.73z"/>
		<path d="M312.43,542.83c1.45,0,2.68,1.92,3.62,4.12c1.35,3.15,1.98,6.56,1.98,9.99v82.18c0,7.25-6.31,12.92-6.31,12.92v1.22h25.26
			v-49.2c7.45,0.23,20.62,1.8,22.25,9.93h2.3v-13.78v-13.78h-2.3c-1.64,8.13-14.81,9.7-22.25,9.93v-47.08h8.75
			c16.15,0,21.02,20.09,21.02,20.09h1.36v-27.84h-55.68V542.83z"/>
		<path d="M423.45,525.77l-3.46-11.7l-2.02-1.01c-8.66,15.44-20.99,12.48-20.99,12.48v6.28
			C418.25,535.35,423.45,525.77,423.45,525.77z"/>
		<path d="M194.68,653.41c0,0,33.63,1.13,31.32-53.19l-5.67,0.16c1.76,16.23-3.03,29.83-13.13,33.63
			c-13.6,5.11-31.68-9.51-40.37-32.66c-8.7-23.14-4.72-46.05,8.88-51.16c12.33-4.63,28.34,6.95,37.7,26.41l8.02-27.78
			c-9.96-9.68-22.51-14.85-35.45-13.26c-26.55,3.26-44.67,33.68-40.46,67.95c1.74,14.18,7.03,26.79,14.52,36.48
			C167.19,648.01,178.18,654.75,194.68,653.41z"/>
		<path d="M745.41,645.15c-13.13,4.7-31.61-10.1-41.74-33.67c-8.72-20.28-8.47-40.58-0.31-49.87c-0.17-3.52,0.08-7.05,0.8-10.47
			c-15.47,9.46-25.99,28.02-25.99,49.38c0,30.95,22.09,56.04,49.34,56.04c6.51,0,12.72-1.45,18.41-4.05
			C746.16,650.03,745.96,647.61,745.41,645.15z"/>
		<path d="M776.86,600.52c0-30.95-22.09-56.04-49.34-56.04c-6.11,0-11.96,1.27-17.36,3.58c-0.16,3-0.03,6.01,0.41,8.96
			c13.06-3.68,30.9,10.96,40.79,33.98c8.05,18.73,8.45,37.47,2.04,47.54c0.59,3.04,0.87,6.09,0.77,9.15
			C767.81,637.7,776.86,620.31,776.86,600.52z"/>
		<path d="M753.4,638.52c-1.83,2.88-4.22,5.05-7.15,6.31c-0.28,0.12-0.56,0.22-0.84,0.32c0.55,2.47,0.75,4.88,0.52,7.36
			c2.89-1.32,5.65-2.95,8.24-4.84C754.27,644.62,753.99,641.56,753.4,638.52z"/>
		<path d="M703.36,561.61c1.53-1.74,3.33-3.09,5.41-3.98c0.59-0.25,1.19-0.45,1.79-0.62c-0.44-2.95-0.57-5.96-0.41-8.96
			c-2.07,0.88-4.07,1.92-6,3.09C703.44,554.56,703.19,558.09,703.36,561.61z"/>
	</g>
	<path d="M544.92,424.22c-0.13,1.31-0.3,2.6-0.49,3.88c0,0.02,0,0.05,0,0.06c-0.45,3.54-2.63,14.46-2.63,14.46
		c-0.61-31.47-59.39-42-65.62-59.93c-6.23-17.94,8.83-24.95,8.83-24.95l0.01,0.02c0.71-0.45,1.44-0.86,2.22-1.17
		c1.63-0.66,3.3-1.19,5-1.59c2.53-0.6,5.13-0.93,7.79-0.93c13.17,0,25.22,7.85,33.58,20.45c5.97,9,10.06,20.41,11.31,33.14
		l11.5-1.31c-1.83-18.6-8.91-34.88-19.12-46.47c-10.05-11.4-23.13-18.24-37.27-18.24c-11.64,0-22.47,4.6-31.5,12.47
		c-15.29,13.34-25.38,36.07-25.38,61.84c0,20.66,6.49,39.37,16.94,52.85c10.28,13.26,24.38,21.46,39.93,21.46
		c18.01,0,34.31-11.11,44.79-28.58c6.12-10.19,10.26-22.55,11.6-36.15L544.92,424.22z M521.2,470.14
		c-4.86,5.17-13.29,6.72-13.29,6.72l0.01-0.03c-2.23,0.54-4.51,0.89-6.83,0.96c-0.35,0.01-0.7,0.03-1.06,0.03
		c-2.32,0-4.6-0.24-6.82-0.7c-11.77-2.44-22.05-11.09-29.03-23.4c-5.92-10.46-9.46-23.56-9.46-37.77c0-7.43,0.97-14.55,2.74-21.15
		l0,0l0-0.01c0.59-2.22,3.05-9.99,3.82-12.08c0,0-6.57,21.32,30.95,40.09c10.83,5.42,27.34,12.34,33.3,22.59
		c0.01,0.01,0.01,0.01,0.02,0.02c0.01,0.01,0.01,0.02,0.02,0.03c0.21,0.36,0.4,0.72,0.58,1.09
		C531.14,456.09,525.88,465.16,521.2,470.14z"/>
</g>
</svg>
